<mxfile host="app.diagrams.net" agent="Mozilla/5.0 (X11; Linux x86_64) AppleWebKit/537.36 (KHTML, like Gecko) Chrome/129.0.0.0 Safari/537.36" version="24.8.2">
  <diagram name="Page-1" id="55a83fd1-7818-8e21-69c5-c3457e3827bb">
    <mxGraphModel dx="868" dy="454" grid="1" gridSize="10" guides="1" tooltips="1" connect="1" arrows="1" fold="1" page="1" pageScale="1" pageWidth="1100" pageHeight="850" background="none" math="0" shadow="0">
      <root>
        <mxCell id="0" />
        <mxCell id="1" parent="0" />
        <mxCell id="69ecfefc5c41e42c-19" style="edgeStyle=none;rounded=0;html=1;labelBackgroundColor=none;endArrow=none;strokeWidth=2;fontFamily=Verdana;fontSize=22" parent="1" edge="1">
          <mxGeometry relative="1" as="geometry">
            <mxPoint x="280" y="330" as="sourcePoint" />
            <mxPoint x="770" y="330" as="targetPoint" />
          </mxGeometry>
        </mxCell>
        <mxCell id="69ecfefc5c41e42c-5" value="Wired Server" style="image;html=1;labelBackgroundColor=#ffffff;image=img/lib/clip_art/computers/Monitor_Tower_128x128.png;rounded=1;shadow=0;comic=0;strokeWidth=2;fontSize=22" parent="1" vertex="1">
          <mxGeometry x="280" y="425" width="80" height="80" as="geometry" />
        </mxCell>
        <mxCell id="69ecfefc5c41e42c-9" value="WiFi Clients" style="image;html=1;labelBackgroundColor=#ffffff;image=img/lib/clip_art/computers/Netbook_128x128.png;rounded=1;shadow=0;comic=0;strokeColor=#000000;strokeWidth=2;fillColor=#FFFFFF;fontSize=22;fontColor=#000000;" parent="1" vertex="1">
          <mxGeometry x="930" y="170" width="80" height="80" as="geometry" />
        </mxCell>
        <mxCell id="69ecfefc5c41e42c-10" value="" style="image;html=1;labelBackgroundColor=#ffffff;image=img/lib/clip_art/computers/Netbook_128x128.png;rounded=1;shadow=0;comic=0;strokeWidth=2;fontSize=22" parent="1" vertex="1">
          <mxGeometry x="910" y="360" width="80" height="80" as="geometry" />
        </mxCell>
        <mxCell id="69ecfefc5c41e42c-13" value="" style="html=1;fillColor=#CCCCCC;strokeColor=#6881B3;gradientColor=none;gradientDirection=north;strokeWidth=2;shape=mxgraph.networks.comm_link_edge;html=1;labelBackgroundColor=none;endArrow=none;fontFamily=Verdana;fontSize=22;fontColor=#000000;" parent="1" source="69ecfefc5c41e42c-10" edge="1">
          <mxGeometry width="100" height="100" relative="1" as="geometry">
            <mxPoint x="330" y="491.9565217391305" as="sourcePoint" />
            <mxPoint x="830" y="310" as="targetPoint" />
          </mxGeometry>
        </mxCell>
        <mxCell id="69ecfefc5c41e42c-17" value="" style="html=1;fillColor=#CCCCCC;strokeColor=#6881B3;gradientColor=none;gradientDirection=north;strokeWidth=2;shape=mxgraph.networks.comm_link_edge;html=1;labelBackgroundColor=none;endArrow=none;fontFamily=Verdana;fontSize=22;fontColor=#000000;" parent="1" source="69ecfefc5c41e42c-9" edge="1">
          <mxGeometry width="100" height="100" relative="1" as="geometry">
            <mxPoint x="370" y="531.9565217391305" as="sourcePoint" />
            <mxPoint x="820" y="240" as="targetPoint" />
          </mxGeometry>
        </mxCell>
        <mxCell id="cdEf1zgu6GCOJ6c-2kMY-2" value="" style="fontColor=#0066CC;verticalAlign=top;verticalLabelPosition=bottom;labelPosition=center;align=center;html=1;outlineConnect=0;fillColor=#CCCCCC;strokeColor=#6881B3;gradientColor=none;gradientDirection=north;strokeWidth=2;shape=mxgraph.networks.wireless_hub;" vertex="1" parent="1">
          <mxGeometry x="710" y="230" width="100" height="85" as="geometry" />
        </mxCell>
        <mxCell id="cdEf1zgu6GCOJ6c-2kMY-7" value="Wired Client" style="image;html=1;labelBackgroundColor=#ffffff;image=img/lib/clip_art/computers/Workstation_128x128.png;rounded=1;shadow=0;comic=0;strokeWidth=2;fontSize=22" vertex="1" parent="1">
          <mxGeometry x="550" y="420" width="80" height="80" as="geometry" />
        </mxCell>
        <mxCell id="cdEf1zgu6GCOJ6c-2kMY-11" value="&lt;font style=&quot;font-size: 18px;&quot;&gt;physical VLAN (eg. 40) dhcp&lt;/font&gt;" style="text;strokeColor=none;fillColor=none;html=1;fontSize=24;fontStyle=1;verticalAlign=middle;align=center;" vertex="1" parent="1">
          <mxGeometry x="470" y="290" width="100" height="40" as="geometry" />
        </mxCell>
        <mxCell id="cdEf1zgu6GCOJ6c-2kMY-14" value="" style="endArrow=none;html=1;rounded=0;exitX=0.25;exitY=0;exitDx=0;exitDy=0;" edge="1" parent="1" source="69ecfefc5c41e42c-5">
          <mxGeometry width="50" height="50" relative="1" as="geometry">
            <mxPoint x="520" y="410" as="sourcePoint" />
            <mxPoint x="300" y="330" as="targetPoint" />
          </mxGeometry>
        </mxCell>
        <UserObject label="&lt;font style=&quot;text-wrap: nowrap; font-size: 14px;&quot;&gt;Physical Interface (eg. eth0)&lt;/font&gt;&lt;div style=&quot;font-size: 11px; text-wrap: nowrap; text-align: right;&quot;&gt;&lt;font style=&quot;font-size: 14px;&quot;&gt;with&amp;nbsp;dynamic IP address&lt;/font&gt;&lt;/div&gt;" placeholders="1" name="Variable" id="cdEf1zgu6GCOJ6c-2kMY-15">
          <mxCell style="text;html=1;strokeColor=none;fillColor=none;align=center;verticalAlign=middle;whiteSpace=wrap;overflow=hidden;" vertex="1" parent="1">
            <mxGeometry x="110" y="330" width="190" height="80" as="geometry" />
          </mxCell>
        </UserObject>
        <mxCell id="cdEf1zgu6GCOJ6c-2kMY-16" value="" style="endArrow=none;html=1;rounded=0;exitX=0.25;exitY=0;exitDx=0;exitDy=0;strokeColor=#DF1111;strokeWidth=3;" edge="1" parent="1">
          <mxGeometry width="50" height="50" relative="1" as="geometry">
            <mxPoint x="340" y="425" as="sourcePoint" />
            <mxPoint x="340" y="330" as="targetPoint" />
          </mxGeometry>
        </mxCell>
        <UserObject label="&lt;div style=&quot;&quot;&gt;&lt;span style=&quot;font-size: 14px; text-wrap: nowrap; background-color: initial;&quot;&gt;Virtual Interface (natfree00)&lt;/span&gt;&lt;/div&gt;&lt;div&gt;&lt;span style=&quot;font-size: 14px; text-wrap: nowrap;&quot;&gt;in the same physical network&amp;nbsp;&lt;/span&gt;&lt;/div&gt;&lt;div&gt;&lt;span style=&quot;font-size: 14px; text-wrap: nowrap;&quot;&gt;with&amp;nbsp;&lt;/span&gt;&lt;span style=&quot;background-color: initial; font-size: 14px; text-wrap: nowrap;&quot;&gt;IP calculated in a&lt;/span&gt;&lt;/div&gt;&lt;div&gt;&lt;span style=&quot;background-color: initial; font-size: 14px; text-wrap: nowrap;&quot;&gt;prearranged manner&lt;/span&gt;&lt;/div&gt;" placeholders="1" name="Variable" id="cdEf1zgu6GCOJ6c-2kMY-17">
          <mxCell style="text;html=1;strokeColor=none;fillColor=none;align=left;verticalAlign=middle;whiteSpace=wrap;overflow=hidden;fontColor=#df1111;" vertex="1" parent="1">
            <mxGeometry x="350" y="330" width="190" height="80" as="geometry" />
          </mxCell>
        </UserObject>
        <UserObject label="&lt;div style=&quot;&quot;&gt;&lt;span style=&quot;font-size: 14px; text-wrap: nowrap; background-color: initial;&quot;&gt;Package natfree-iface installed&lt;br&gt;&lt;/span&gt;&lt;/div&gt;&lt;div style=&quot;&quot;&gt;&lt;font color=&quot;#000000&quot;&gt;(optionally natfree-server)&lt;/font&gt;&lt;/div&gt;" placeholders="1" name="Variable" id="cdEf1zgu6GCOJ6c-2kMY-18">
          <mxCell style="text;html=1;strokeColor=none;fillColor=none;align=left;verticalAlign=middle;whiteSpace=wrap;overflow=hidden;fontColor=#DF1111;" vertex="1" parent="1">
            <mxGeometry x="250" y="540" width="210" height="50" as="geometry" />
          </mxCell>
        </UserObject>
        <mxCell id="cdEf1zgu6GCOJ6c-2kMY-19" value="" style="endArrow=none;html=1;rounded=0;exitX=0.25;exitY=0;exitDx=0;exitDy=0;" edge="1" parent="1">
          <mxGeometry width="50" height="50" relative="1" as="geometry">
            <mxPoint x="570" y="425" as="sourcePoint" />
            <mxPoint x="570" y="330" as="targetPoint" />
          </mxGeometry>
        </mxCell>
        <UserObject label="&lt;font style=&quot;text-wrap: nowrap; font-size: 14px;&quot;&gt;Physical Interface (eg. eth0)&lt;/font&gt;&lt;div style=&quot;font-size: 11px; text-wrap: nowrap; text-align: right;&quot;&gt;&lt;font style=&quot;font-size: 14px;&quot;&gt;with&amp;nbsp;dynamic IP address&lt;/font&gt;&lt;/div&gt;" placeholders="1" name="Variable" id="cdEf1zgu6GCOJ6c-2kMY-20">
          <mxCell style="text;html=1;strokeColor=none;fillColor=none;align=center;verticalAlign=middle;whiteSpace=wrap;overflow=hidden;" vertex="1" parent="1">
            <mxGeometry x="570" y="330" width="190" height="80" as="geometry" />
          </mxCell>
        </UserObject>
        <UserObject label="&lt;div style=&quot;&quot;&gt;&lt;span style=&quot;font-size: 14px; text-wrap: nowrap; background-color: initial;&quot;&gt;Package natfree-client installed&lt;/span&gt;&lt;/div&gt;&lt;div style=&quot;&quot;&gt;&lt;span style=&quot;font-size: 14px; text-wrap: nowrap; background-color: initial;&quot;&gt;&lt;font color=&quot;#000000&quot;&gt;(default configuration)&lt;/font&gt;&lt;/span&gt;&lt;/div&gt;" placeholders="1" name="Variable" id="cdEf1zgu6GCOJ6c-2kMY-21">
          <mxCell style="text;html=1;strokeColor=none;fillColor=none;align=left;verticalAlign=middle;whiteSpace=wrap;overflow=hidden;fontColor=#DF1111;" vertex="1" parent="1">
            <mxGeometry x="530" y="540" width="210" height="40" as="geometry" />
          </mxCell>
        </UserObject>
        <mxCell id="cdEf1zgu6GCOJ6c-2kMY-23" value="&lt;font style=&quot;font-size: 18px;&quot;&gt;WiFi VLAN (eg. 46)&lt;/font&gt;" style="text;strokeColor=none;fillColor=none;html=1;fontSize=24;fontStyle=1;verticalAlign=middle;align=center;" vertex="1" parent="1">
          <mxGeometry x="750" y="180" width="100" height="40" as="geometry" />
        </mxCell>
        <UserObject label="&lt;div style=&quot;&quot;&gt;&lt;span style=&quot;font-size: 14px; text-wrap: nowrap; background-color: initial;&quot;&gt;Package natfree-client installed&lt;/span&gt;&lt;/div&gt;&lt;div style=&quot;&quot;&gt;&lt;span style=&quot;font-size: 14px; text-wrap: nowrap; background-color: initial;&quot;&gt;+&amp;nbsp;&lt;/span&gt;&lt;span style=&quot;font-size: 14px; text-wrap: nowrap; background-color: initial;&quot;&gt;additional configuration&lt;/span&gt;&lt;/div&gt;" placeholders="1" name="Variable" id="cdEf1zgu6GCOJ6c-2kMY-24">
          <mxCell style="text;html=1;strokeColor=none;fillColor=none;align=left;verticalAlign=middle;whiteSpace=wrap;overflow=hidden;fontColor=#DF1111;" vertex="1" parent="1">
            <mxGeometry x="865" y="280" width="210" height="40" as="geometry" />
          </mxCell>
        </UserObject>
      </root>
    </mxGraphModel>
  </diagram>
</mxfile>
